<?xml version="1.0" encoding="UTF-8"?>
<svg version="1.1" xmlns="http://www.w3.org/2000/svg" width="598" height="246">
<path d="M0 0 C197.34 0 394.68 0 598 0 C598 81.18 598 162.36 598 246 C400.66 246 203.32 246 0 246 C0 164.82 0 83.64 0 0 Z " fill="#1B00BE" transform="translate(0,0)"/>
<path d="M0 0 C4.71397093 -0.34031341 9.2963355 -0.53228536 14 0 C16.875 2.75 16.875 2.75 18 6 C18 7.32 18 8.64 18 10 C46.38 10 74.76 10 104 10 C103.36967983 19.4548026 102.78445541 27.43298882 100.5 36.375 C99.03031232 42.27894538 97.73544937 47.92196486 97.42382812 54.01416016 C96.84348829 56.73333311 95.94897158 58.006771 94 60 C91.20954895 60.48101807 91.20954895 60.48101807 87.78442383 60.45410156 C86.5033223 60.45379944 85.22222076 60.45349731 83.90229797 60.45318604 C82.50386943 60.43275939 81.10544721 60.4118954 79.70703125 60.390625 C78.27643117 60.38316359 76.84582086 60.37747018 75.41520691 60.37347412 C71.65186285 60.35820957 67.88913742 60.31892176 64.1260376 60.2746582 C60.28528207 60.23372257 56.44442647 60.21546682 52.60351562 60.1953125 C45.06872855 60.15242737 37.53445099 60.08416728 30 60 C29.85054932 60.94633301 29.70109863 61.89266602 29.54711914 62.86767578 C28.88542835 66.65593677 27.60040574 69.52085709 26 73 C24.68 72.67 23.36 72.34 22 72 C22.2165625 71.39414063 22.433125 70.78828125 22.65625 70.1640625 C26.06333952 59.91124683 25.48822959 52.65218878 22.08984375 42.45703125 C19.90552078 35.52826483 18 28.28579248 18 21 C17.34 21 16.68 21 16 21 C15.49453964 18.91798472 14.99583165 16.83432933 14.5 14.75 C14.2215625 13.58984375 13.943125 12.4296875 13.65625 11.234375 C13 8 13 8 13 4 C7.98464948 4.32960216 7.98464948 4.32960216 4 7 C1.875 6.625 1.875 6.625 0 6 C-1.125 2.25 -1.125 2.25 0 0 Z " fill="#E0FCAC" transform="translate(73,69)"/>
<path d="M0 0 C3.70683927 1.0360313 5.53554317 2.78850188 8.15234375 5.6015625 C9.91979273 10.90390944 10.32151034 16.84878594 8.10546875 22.06640625 C4.9464038 27.20453247 4.9464038 27.20453247 2.15234375 28.6015625 C-2.29135462 29.12485517 -5.71889074 29.42748848 -9.41015625 26.7265625 C-10.84765625 24.6015625 -10.84765625 24.6015625 -10.84765625 22.6015625 C-11.50765625 22.6015625 -12.16765625 22.6015625 -12.84765625 22.6015625 C-14.98910255 18.31866991 -14.53435856 13.22958984 -13.84765625 8.6015625 C-10.90106743 2.52364574 -6.84592792 -0.63193181 0 0 Z " fill="#C2D6AF" transform="translate(231.84765625,100.3984375)"/>
<path d="M0 0 C3.86086176 0.7235005 5.61381104 2.6165719 8.29296875 5.4296875 C9.76364645 8.3710429 9.46345874 11.03196155 9.48046875 14.3046875 C9.49464844 15.53960937 9.50882812 16.77453125 9.5234375 18.046875 C9.3082532 21.20534291 9.02938311 22.8432801 7.29296875 25.4296875 C3.62591075 28.54113065 0.120774 29.05814198 -4.55078125 28.92578125 C-8.41422185 28.03690995 -9.62447408 25.68368309 -11.70703125 22.4296875 C-13.04531026 19.75312949 -12.91281681 17.60534698 -12.95703125 14.6171875 C-12.9828125 13.57949219 -13.00859375 12.54179688 -13.03515625 11.47265625 C-12.58299352 7.27938521 -10.86518292 4.88455572 -8.2890625 1.6484375 C-5.65445526 -0.38118585 -3.21763499 -0.09448194 0 0 Z " fill="#C7DDAE" transform="translate(486.70703125,100.5703125)"/>
<path d="M0 0 C2.5 0.125 2.5 0.125 3.5 1.125 C3.57226502 2.97787502 3.5838122 4.83333878 3.5625 6.6875 C3.55347656 7.69941406 3.54445313 8.71132812 3.53515625 9.75390625 C3.52355469 10.53636719 3.51195312 11.31882812 3.5 12.125 C6.47 12.125 9.44 12.125 12.5 12.125 C12.48839844 11.34253906 12.47679687 10.56007813 12.46484375 9.75390625 C12.45582031 8.74199219 12.44679688 7.73007813 12.4375 6.6875 C12.42589844 5.67816406 12.41429687 4.66882813 12.40234375 3.62890625 C12.5 1.125 12.5 1.125 13.5 0.125 C15.15 0.125 16.8 0.125 18.5 0.125 C18.5 9.365 18.5 18.605 18.5 28.125 C16.52 28.125 14.54 28.125 12.5 28.125 C12.5 24.165 12.5 20.205 12.5 16.125 C9.53 16.125 6.56 16.125 3.5 16.125 C3.5 20.085 3.5 24.045 3.5 28.125 C1.19 28.125 -1.12 28.125 -3.5 28.125 C-3.52886338 23.64584672 -3.54675187 19.16671709 -3.5625 14.6875 C-3.57087891 13.40810547 -3.57925781 12.12871094 -3.58789062 10.81054688 C-3.59111328 9.59560547 -3.59433594 8.38066406 -3.59765625 7.12890625 C-3.60289307 6.00299072 -3.60812988 4.8770752 -3.61352539 3.71704102 C-3.46314571 0.28353325 -3.42370175 0.17118509 0 0 Z " fill="#8183B4" transform="translate(449.5,100.875)"/>
<path d="M0 0 C1.65 0 3.3 0 5 0 C6.6953125 1.72265625 6.6953125 1.72265625 8.125 4.0625 C8.84042969 5.19365234 8.84042969 5.19365234 9.5703125 6.34765625 C11.25003482 9.46386241 12.60549186 12.74614767 14 16 C14.33 10.72 14.66 5.44 15 0 C16.65 0 18.3 0 20 0 C20 9.24 20 18.48 20 28 C18.02 28 16.04 28 14 28 C13.608125 27.030625 13.21625 26.06125 12.8125 25.0625 C10.874672 20.51605738 8.44324543 16.29218792 6 12 C5.67 16.95 5.34 21.9 5 27 C3.35 27 1.7 27 0 27 C0 18.09 0 9.18 0 0 Z " fill="#C8DEAE" transform="translate(370,101)"/>
<path d="M0 0 C1.65 0 3.3 0 5 0 C6.984375 2.484375 6.984375 2.484375 8.75 5.75 C9.34296875 6.81734375 9.9359375 7.8846875 10.546875 8.984375 C12 12 12 12 12.578125 14.328125 C12.71734375 14.87984375 12.8565625 15.4315625 13 16 C13.66 16.33 14.32 16.66 15 17 C15 11.39 15 5.78 15 0 C16.65 0 18.3 0 20 0 C20 9.24 20 18.48 20 28 C18.02 28 16.04 28 14 28 C12.82845707 25.71070947 11.66261926 23.41881638 10.5 21.125 C10.16613281 20.47402344 9.83226562 19.82304688 9.48828125 19.15234375 C7 14.2265625 7 14.2265625 7 12 C6.34 12 5.68 12 5 12 C5 16.95 5 21.9 5 27 C3.35 27 1.7 27 0 27 C0 18.09 0 9.18 0 0 Z " fill="#C8DDAE" transform="translate(247,101)"/>
<path d="M0 0 C1.65 0 3.3 0 5 0 C6 1 6 1 6.11352539 3.59204102 C6.10828857 4.71795654 6.10305176 5.84387207 6.09765625 7.00390625 C6.09443359 8.21884766 6.09121094 9.43378906 6.08789062 10.68554688 C6.07951172 11.96494141 6.07113281 13.24433594 6.0625 14.5625 C6.05798828 15.84576172 6.05347656 17.12902344 6.04882812 18.45117188 C6.03699545 21.63416022 6.02051068 24.81705762 6 28 C4.02 28 2.04 28 0 28 C-0.96087136 26.10545176 -1.91858969 24.20930419 -2.875 22.3125 C-3.40867187 21.25675781 -3.94234375 20.20101562 -4.4921875 19.11328125 C-5.78688105 16.44004095 -6.94023254 13.7728867 -8 11 C-8.66 11 -9.32 11 -10 11 C-10 16.28 -10 21.56 -10 27 C-11.32 27 -12.64 27 -14 27 C-14 18.75 -14 10.5 -14 2 C-8.02439024 3.19512195 -8.02439024 3.19512195 -5 7 C-3.54017916 9.62366425 -2.27156315 12.27522181 -1 15 C-0.67 10.05 -0.34 5.1 0 0 Z " fill="#D8F2AC" transform="translate(325,101)"/>
<path d="M0 0 C12 0 12 0 15.25 1.5 C17.37785595 4.53979422 17.67550039 6.44407151 17.41015625 10.09765625 C17 12 17 12 15.5 14.4375 C11.98174839 16.63640725 9.12523715 16.72498419 5 17 C4.67 19.97 4.34 22.94 4 26 C2.68 26 1.36 26 0 26 C0 17.42 0 8.84 0 0 Z " fill="#CCE4AD" transform="translate(502,102)"/>
<path d="M0 0 C5.61 0 11.22 0 17 0 C17 0.99 17 1.98 17 3 C13.04 3 9.08 3 5 3 C5 5.64 5 8.28 5 11 C8.96 11 12.92 11 17 11 C17 12.32 17 13.64 17 15 C13.37 15 9.74 15 6 15 C6 17.64 6 20.28 6 23 C9.96 23 13.92 23 18 23 C18 24.32 18 25.64 18 27 C12.06 27 6.12 27 0 27 C0 18.09 0 9.18 0 0 Z " fill="#BBCEAF" transform="translate(347,102)"/>
<path d="M0 0 C1.65 0 3.3 0 5 0 C5.84039886 2.58122508 6.67250556 5.16463901 7.5 7.75 C7.85771484 8.84441406 7.85771484 8.84441406 8.22265625 9.9609375 C8.44824219 10.66992188 8.67382812 11.37890625 8.90625 12.109375 C9.11572266 12.75874023 9.32519531 13.40810547 9.54101562 14.07714844 C10 16 10 16 10 20 C10.66 20 11.32 20 12 20 C12.1546875 18.39125 12.1546875 18.39125 12.3125 16.75 C13.0099734 11.04712923 14.53076782 5.54427239 16 0 C17.98 0 19.96 0 22 0 C21.67 2.97 21.34 5.94 21 9 C20.34 9 19.68 9 19 9 C18.83564453 9.81791016 18.83564453 9.81791016 18.66796875 10.65234375 C17.48990063 16.25535065 15.912965 21.6054387 14 27 C12.02 27 10.04 27 8 27 C5.87501348 21.631613 4.05448998 16.18969183 2.3125 10.6875 C1.97279175 9.62885742 1.97279175 9.62885742 1.6262207 8.54882812 C0.69936091 5.58911969 0 3.12081543 0 0 Z " fill="#C9DFAE" transform="translate(272,102)"/>
<path d="M0 0 C0.33 1.32 0.66 2.64 1 4 C-1.31 4.33 -3.62 4.66 -6 5 C-6.33 6.65 -6.66 8.3 -7 10 C-5.9171875 10.49306641 -5.9171875 10.49306641 -4.8125 10.99609375 C2.5500327 14.76939176 2.5500327 14.76939176 3.83984375 18.296875 C3.9411109 20.77589474 3.7674713 22.64210624 3 25 C0.69191674 27.45699185 -0.94691286 27.90740096 -4.265625 28.19921875 C-10.34655573 28.32672214 -10.34655573 28.32672214 -13 27 C-13 25.68 -13 24.36 -13 23 C-9.7 23 -6.4 23 -3 23 C-3 21.35 -3 19.7 -3 18 C-4.65618771 16.38844214 -4.65618771 16.38844214 -6.875 15.3125 C-9.30998255 13.97282322 -11.01870243 12.98129757 -13 11 C-13.4375 7.625 -13.4375 7.625 -13 4 C-9.16234369 -0.67714363 -5.62498439 -0.38135487 0 0 Z " fill="#C1D5AF" transform="translate(440,101)"/>
<path d="M0 0 C2.015625 0.4765625 2.015625 0.4765625 5.015625 2.4765625 C4.685625 3.7965625 4.355625 5.1165625 4.015625 6.4765625 C1.045625 6.1465625 -1.924375 5.8165625 -4.984375 5.4765625 C-8.02497009 9.40399783 -8.47044667 12.57080323 -8.25390625 17.3828125 C-8.04719619 19.59718988 -8.04719619 19.59718988 -7.046875 22.0390625 C-3.66594153 24.39547068 0.02621606 23.77764997 4.015625 23.4765625 C4.015625 24.7965625 4.015625 26.1165625 4.015625 27.4765625 C0.49160295 29.23857352 -3.16013739 29.28504226 -6.984375 28.4765625 C-10.60754638 25.61695203 -13.64148452 21.79107326 -14.328125 17.15625 C-14.62707753 11.79005202 -14.41153601 8.13281656 -11.046875 3.7890625 C-7.54094042 0.29740871 -4.85383543 -0.3224576 0 0 Z " fill="#C5DAAE" transform="translate(207.984375,100.5234375)"/>
<path d="M0 0 C2.9375 1.5625 2.9375 1.5625 5 4 C5.55000624 7.78129287 5.21951328 10.31219173 4.0625 13.9375 C1.6453661 16.3546339 0.87880909 16.39886633 -2.4375 16.5625 C-5.48133588 16.36916189 -6.88593186 16.06677159 -9.5625 14.5 C-11.59904214 10.95818758 -11.79285673 7.98880501 -11 4 C-8.1553332 -0.55146687 -5.11689336 -0.71816047 0 0 Z " fill="#D4EDAD" transform="translate(100,146)"/>
<path d="M0 0 C0.66 1.32 1.32 2.64 2 4 C2.66 4 3.32 4 4 4 C4 6.64 4 9.28 4 12 C3.34 12 2.68 12 2 12 C1.34 13.32 0.68 14.64 0 16 C-7.2 16.48 -7.2 16.48 -10.5 14.5 C-12.62153384 10.96411027 -12.791013 8.02098277 -12 4 C-8.98818934 -1.01968443 -5.31107251 -0.3540715 0 0 Z " fill="#D5EEAD" transform="translate(164,146)"/>
<path d="M0 0 C3.02985373 -0.33665041 4.63672156 -0.20618506 7.3125 1.3125 C10.03156032 5.64285533 9.59529901 10.03182558 9 15 C7.875 18.1875 7.875 18.1875 6 20 C3 20.5625 3 20.5625 0 20 C-2.30757682 18.23085777 -2.88412632 16.83364677 -3.28125 13.9765625 C-3.50272381 8.56891035 -2.44803635 4.79407118 0 0 Z " fill="#260FBD" transform="translate(482,105)"/>
<path d="M0 0 C2.82619441 2.18434806 3.88862053 3.34663227 4.49609375 6.91015625 C4.47675781 7.95042969 4.45742187 8.99070312 4.4375 10.0625 C4.43621094 11.10535156 4.43492187 12.14820312 4.43359375 13.22265625 C4 16 4 16 2.66015625 17.84765625 C0.06686422 19.64770601 -1.93769167 19.38278854 -5 19 C-6.6640625 17.8828125 -6.6640625 17.8828125 -8 16 C-8.3984375 12.96875 -8.3984375 12.96875 -8.375 9.5 C-8.38660156 7.78296875 -8.38660156 7.78296875 -8.3984375 6.03125 C-8 3 -8 3 -6.62890625 1.12109375 C-4.24575989 -0.51910531 -2.82954955 -0.48309383 0 0 Z " fill="#270FBD" transform="translate(232,105)"/>
<path d="M0 0 C0.99 0 1.98 0 3 0 C3.33 3.63 3.66 7.26 4 11 C7.63 11 11.26 11 15 11 C15.33 7.37 15.66 3.74 16 0 C16.99 0 17.98 0 19 0 C19 8.58 19 17.16 19 26 C18.01 26 17.02 26 16 26 C15.67 22.37 15.34 18.74 15 15 C11.37 14.67 7.74 14.34 4 14 C4 17.96 4 21.92 4 26 C2.68 26 1.36 26 0 26 C0 17.42 0 8.84 0 0 Z " fill="#DDF9AC" transform="translate(448,102)"/>
<path d="M0 0 C4.71397093 -0.34031341 9.2963355 -0.53228536 14 0 C16.875 2.75 16.875 2.75 18 6 C18 7.32 18 8.64 18 10 C46.38 10 74.76 10 104 10 C104 10.33 104 10.66 104 11 C75.29 11 46.58 11 17 11 C16.67 10.34 16.34 9.68 16 9 C15.01 10.485 15.01 10.485 14 12 C13.67 9.36 13.34 6.72 13 4 C7.98464948 4.32960216 7.98464948 4.32960216 4 7 C1.875 6.625 1.875 6.625 0 6 C-1.125 2.25 -1.125 2.25 0 0 Z " fill="#9AA3B2" transform="translate(73,69)"/>
<path d="M0 0 C13.53 0 27.06 0 41 0 C40.67 1.32 40.34 2.64 40 4 C26.8 4 13.6 4 0 4 C0 2.68 0 1.36 0 0 Z " fill="#AFBEB0" transform="translate(108,149)"/>
<path d="M0 0 C6.6 0 13.2 0 20 0 C20 0.99 20 1.98 20 3 C17.36 3 14.72 3 12 3 C12 10.59 12 18.18 12 26 C10.68 26 9.36 26 8 26 C8 18.41 8 10.82 8 3 C5.36 3 2.72 3 0 3 C0 2.01 0 1.02 0 0 Z " fill="#D6EFAD" transform="translate(395,102)"/>
<path d="M0 0 C1.32 0 2.64 0 4 0 C4 8.58 4 17.16 4 26 C2.68 26 1.36 26 0 26 C0 17.42 0 8.84 0 0 Z " fill="#DAF5AC" transform="translate(337,102)"/>
<path d="M0 0 C1.32 0 2.64 0 4 0 C4 8.58 4 17.16 4 26 C2.68 26 1.36 26 0 26 C0 17.42 0 8.84 0 0 Z " fill="#DAF5AC" transform="translate(300,102)"/>
<path d="M0 0 C1.65 0 3.3 0 5 0 C6 1 6 1 6.11352539 3.59204102 C6.10828857 4.71795654 6.10305176 5.84387207 6.09765625 7.00390625 C6.09443359 8.21884766 6.09121094 9.43378906 6.08789062 10.68554688 C6.07951172 11.96494141 6.07113281 13.24433594 6.0625 14.5625 C6.05798828 15.84576172 6.05347656 17.12902344 6.04882812 18.45117188 C6.03699545 21.63416022 6.02051068 24.81705762 6 28 C4.02 28 2.04 28 0 28 C1.32 27.67 2.64 27.34 4 27 C4 18.75 4 10.5 4 2 C3.01 2 2.02 2 1 2 C1 6.95 1 11.9 1 17 C0.34 16.67 -0.32 16.34 -1 16 C-0.67 10.72 -0.34 5.44 0 0 Z " fill="#9197B3" transform="translate(325,101)"/>
<path d="M0 0 C4.62 0 9.24 0 14 0 C14.33 1.65 14.66 3.3 15 5 C14.67 4.34 14.34 3.68 14 3 C11.03 3 8.06 3 5 3 C4.67 4.32 4.34 5.64 4 7 C2.68 6.67 1.36 6.34 0 6 C-1.125 2.25 -1.125 2.25 0 0 Z " fill="#C7DCAE" transform="translate(73,69)"/>
<path d="M0 0 C1.99954746 -0.04254356 4.00041636 -0.04080783 6 0 C7 1 7 1 7.125 4.5 C7 8 7 8 6 9 C4.00041636 9.04080783 1.99954746 9.04254356 0 9 C0 6.03 0 3.06 0 0 Z " fill="#230ABE" transform="translate(507,106)"/>
<path d="M0 0 C0.78503906 0.00515625 1.57007813 0.0103125 2.37890625 0.015625 C3.55259766 0.00789063 3.55259766 0.00789063 4.75 0 C6.94140625 0.265625 6.94140625 0.265625 9.94140625 2.265625 C9.61140625 3.585625 9.28140625 4.905625 8.94140625 6.265625 C8.01908203 6.12253906 8.01908203 6.12253906 7.078125 5.9765625 C5.86576172 5.81027344 5.86576172 5.81027344 4.62890625 5.640625 C3.82839844 5.52460937 3.02789062 5.40859375 2.203125 5.2890625 C-0.3458259 5.05029093 -0.3458259 5.05029093 -3.05859375 7.265625 C-3.68359375 4.890625 -3.68359375 4.890625 -4.05859375 2.265625 C-2.05859375 0.265625 -2.05859375 0.265625 0 0 Z " fill="#B9CAAF" transform="translate(203.05859375,100.734375)"/>
<path d="M0 0 C0.33 0 0.66 0 1 0 C1 8.58 1 17.16 1 26 C2.65 26 4.3 26 6 26 C6 21.05 6 16.1 6 11 C6.66 11 7.32 11 8 11 C8.66 12.98 9.32 14.96 10 17 C9.01 16.67 8.02 16.34 7 16 C7 19.63 7 23.26 7 27 C4.69 27 2.38 27 0 27 C0 18.09 0 9.18 0 0 Z " fill="#5E56B8" transform="translate(246,102)"/>
<path d="M0 0 C0.33 0 0.66 0 1 0 C1.08935201 3.21667249 0.84062397 5.90226756 0 9 C-1.45823212 9.0270043 -2.91660675 9.04639787 -4.375 9.0625 C-5.18710937 9.07410156 -5.99921875 9.08570313 -6.8359375 9.09765625 C-9 9 -9 9 -11 8 C-11 6.68 -11 5.36 -11 4 C-7.7 4 -4.4 4 -1 4 C-0.67 2.68 -0.34 1.36 0 0 Z " fill="#B7C8B0" transform="translate(438,120)"/>
<path d="M0 0 C0.33 0 0.66 0 1 0 C1 2.31 1 4.62 1 7 C1.66 7 2.32 7 3 7 C2.21302675 10.41021743 1.12880057 13.68885166 0 17 C-1.32 16.67 -2.64 16.34 -4 16 C-2.68 10.72 -1.36 5.44 0 0 Z " fill="#D4EDAD" transform="translate(99,125)"/>
<path d="M0 0 C0.33 0 0.66 0 1 0 C1.6875 3.3125 1.6875 3.3125 2 7 C0.5625 8.9375 0.5625 8.9375 -1 10 C-1.33 7.36 -1.66 4.72 -2 2 C-4.64 2.33 -7.28 2.66 -10 3 C-10 2.34 -10 1.68 -10 1 C-9.36191406 1.01160156 -8.72382812 1.02320312 -8.06640625 1.03515625 C-7.24011719 1.04417969 -6.41382812 1.05320312 -5.5625 1.0625 C-4.32693359 1.07990234 -4.32693359 1.07990234 -3.06640625 1.09765625 C-1.00836062 1.23267348 -1.00836062 1.23267348 0 0 Z " fill="#AAB7B1" transform="translate(88,71)"/>
<path d="M0 0 C0.66 0 1.32 0 2 0 C2.66 1.98 3.32 3.96 4 6 C3.01 5.67 2.02 5.34 1 5 C1 8.63 1 12.26 1 16 C0.67 16 0.34 16 0 16 C0 10.72 0 5.44 0 0 Z " fill="#483BBA" transform="translate(252,113)"/>
<path d="M0 0 C1.21236328 0.04060547 1.21236328 0.04060547 2.44921875 0.08203125 C3.06410156 0.11683594 3.67898438 0.15164062 4.3125 0.1875 C4.3125 0.5175 4.3125 0.8475 4.3125 1.1875 C1.6725 1.1875 -0.9675 1.1875 -3.6875 1.1875 C-3.935 1.80625 -4.1825 2.425 -4.4375 3.0625 C-5.89378639 5.53818687 -7.06562506 6.13875002 -9.6875 7.1875 C-7.45089065 2.19814067 -5.70862614 -0.24820114 0 0 Z " fill="#A3AEB1" transform="translate(484.6875,100.8125)"/>
<path d="M0 0 C0.33 0 0.66 0 1 0 C1 2.31 1 4.62 1 7 C1.66 7 2.32 7 3 7 C2.67 7.99 2.34 8.98 2 10 C1.34 10 0.68 10 0 10 C-0.66 11.32 -1.32 12.64 -2 14 C-3.49341969 11.01316063 -2.40648676 9.04839022 -1.5625 5.875 C-1.27503906 4.77929688 -0.98757812 3.68359375 -0.69140625 2.5546875 C-0.46324219 1.71164063 -0.23507813 0.86859375 0 0 Z " fill="#979FB3" transform="translate(99,125)"/>
<path d="M0 0 C1.65 0 3.3 0 5 0 C5 1.32 5 2.64 5 4 C3.35 4 1.7 4 0 4 C0 2.68 0 1.36 0 0 Z " fill="#CBE2AE" transform="translate(418,124)"/>
<path d="M0 0 C1.98 0 3.96 0 6 0 C6 0.99 6 1.98 6 3 C3.69 3 1.38 3 -1 3 C-0.67 2.01 -0.34 1.02 0 0 Z " fill="#D8F2AD" transform="translate(435,102)"/>
<path d="M0 0 C1.134375 0.020625 2.26875 0.04125 3.4375 0.0625 C3.4375 0.3925 3.4375 0.7225 3.4375 1.0625 C2.509375 1.330625 1.58125 1.59875 0.625 1.875 C-2.32490366 2.97398371 -3.61865186 3.68668561 -5.5625 6.0625 C-4.48849278 0.07874549 -4.48849278 0.07874549 0 0 Z " fill="#584EB9" transform="translate(437.5625,104.9375)"/>
</svg>
