<?xml version="1.0" encoding="UTF-8"?>
<svg version="1.1" xmlns="http://www.w3.org/2000/svg" width="506" height="261">
<path d="M0 0 C166.98 0 333.96 0 506 0 C506 86.13 506 172.26 506 261 C339.02 261 172.04 261 0 261 C0 174.87 0 88.74 0 0 Z " fill="#FEFEFF" transform="translate(0,0)"/>
<path d="M0 0 C126.06 0 252.12 0 382 0 C382 29.37 382 58.74 382 89 C255.94 89 129.88 89 0 89 C0 59.63 0 30.26 0 0 Z " fill="#F9F9FF" transform="translate(84,94)"/>
<path d="M0 0 C126.06 0 252.12 0 382 0 C382 29.37 382 58.74 382 89 C255.94 89 129.88 89 0 89 C0 59.63 0 30.26 0 0 Z M3 3 C3 30.39 3 57.78 3 86 C127.41 86 251.82 86 380 86 C380 58.61 380 31.22 380 3 C255.59 3 131.18 3 3 3 Z " fill="#4EAAFF" transform="translate(84,94)"/>
<path d="M0 0 C0.99 0 1.98 0 3 0 C5.10746706 4.14035044 7.20675845 8.28470942 9.29882812 12.43286133 C10.01050369 13.84119753 10.72433681 15.24844573 11.44042969 16.65454102 C12.4739032 18.6847839 13.49935647 20.71891268 14.5234375 22.75390625 C14.84122162 23.37399063 15.15900574 23.99407501 15.48641968 24.63294983 C17.52327311 28.70511905 18.87331447 32.61379849 20 37 C20.66 37 21.32 37 22 37 C22.22945313 36.20078125 22.45890625 35.4015625 22.6953125 34.578125 C24.34609786 30.05082145 26.57542081 25.97570105 28.875 21.75 C32.33955393 15.2905468 35.50026581 8.90178181 38 2 C38.33 1.34 38.66 0.68 39 0 C39.99 0 40.98 0 42 0 C43.26788003 5.83400536 44.53115454 11.66898241 45.7902832 17.50488281 C46.21872431 19.48757443 46.64839419 21.47000096 47.0793457 23.45214844 C47.7007116 26.31114991 48.31756436 29.17109454 48.93359375 32.03125 C49.12529648 32.90865845 49.31699921 33.78606689 49.51451111 34.69006348 C50.36302242 38.64859685 51.09280514 42.53114288 51.50415039 46.56054688 C51.66778076 47.69556641 51.83141113 48.83058594 52 50 C52.99 50.495 52.99 50.495 54 51 C54.11730469 50.26136719 54.23460937 49.52273437 54.35546875 48.76171875 C54.99745695 46.0108966 55.85832826 44.21210847 57.3125 41.8125 C59.16803096 38.6065253 60.68114658 35.46131734 62 32 C63.27923501 28.65748272 64.7103506 25.59914897 66.5 22.5 C68.74826867 18.60162589 70.4104842 14.63806365 72.01953125 10.44140625 C73.46511476 6.84184572 75.21511098 3.44228596 77 0 C77.99 0 78.98 0 80 0 C80.495 1.155 80.99 2.31 81.5 3.5 C83.85080142 8.80826128 86.46031718 13.97828867 89.09375 19.15039062 C91.23164827 23.37211581 93.14413879 27.64451001 95 32 C95.98357352 34.00812926 96.98308736 36.00854609 98 38 C104 49.92537313 104 49.92537313 104 54 C101.03 54 98.06 54 95 54 C92 47.25 92 47.25 92 45 C78.635 45.495 78.635 45.495 65 46 C64.01 48.64 63.02 51.28 62 54 C61 55 61 55 57.18359375 55.09765625 C55.60153318 55.09098089 54.01948841 55.07901875 52.4375 55.0625 C51.63119141 55.05798828 50.82488281 55.05347656 49.99414062 55.04882812 C47.99606244 55.03700518 45.99802217 55.01906914 44 55 C43.81824219 53.92363281 43.63648438 52.84726563 43.44921875 51.73828125 C42.04984494 43.57010537 40.51629659 35.49497936 38.55078125 27.44140625 C38 25 38 25 38 23 C37.34 23 36.68 23 36 23 C35.89558594 23.52722656 35.79117188 24.05445313 35.68359375 24.59765625 C34.79557416 27.71841082 33.44908136 30.50499907 32.0625 33.4375 C29.88003527 38.06082951 29.88003527 38.06082951 27.93359375 42.78515625 C27 45 27 45 25 47 C23.96157435 49.31648799 22.9578025 51.64903024 22 54 C20.515 53.505 20.515 53.505 19 53 C18.26953125 51.15234375 18.26953125 51.15234375 17.8125 48.9375 C17.65394531 48.20402344 17.49539063 47.47054687 17.33203125 46.71484375 C17.16767578 45.86599609 17.16767578 45.86599609 17 45 C16.34 45 15.68 45 15 45 C13.515 40.05 13.515 40.05 12 35 C11.34 35 10.68 35 10 35 C8.35 31.37 6.7 27.74 5 24 C2.73432261 30.29073554 1.29285566 36.26226717 0.375 42.875 C0.13504258 44.53938554 -0.10705369 46.2034645 -0.3515625 47.8671875 C-0.45291504 48.59019043 -0.55426758 49.31319336 -0.65869141 50.05810547 C-1 52 -1 52 -2 55 C-4.64 55 -7.28 55 -10 55 C-9.48209979 46.54444764 -8.28371005 38.41490962 -6.5625 30.125 C-6.34529297 29.03703125 -6.12808594 27.9490625 -5.90429688 26.828125 C-4.87042419 21.74879854 -3.69065368 16.90507248 -2 12 C-1.5827591 9.88288875 -1.20667429 7.75719187 -0.875 5.625 C-0.70742188 4.56539063 -0.53984375 3.50578125 -0.3671875 2.4140625 C-0.24601562 1.61742188 -0.12484375 0.82078125 0 0 Z " fill="#321EFF" transform="translate(283,107)"/>
<path d="M0 0 C20 0 20 0 27 2 C27 2.66 27 3.32 27 4 C27.61875 4.28875 28.2375 4.5775 28.875 4.875 C31 6 31 6 33 8 C33.69558857 13.47573791 33.91523451 18.41359352 31.125 23.25 C29 25 29 25 27 25 C27 25.66 27 26.32 27 27 C27.928125 27.268125 28.85625 27.53625 29.8125 27.8125 C34.19676104 29.44585215 34.19676104 29.44585215 36 32 C36.46875 35.3984375 36.46875 35.3984375 36.5 39.375 C36.5309375 40.68210938 36.561875 41.98921875 36.59375 43.3359375 C35.86907063 47.80797201 34.41945304 49.14958571 31 52 C30.525625 52.5775 30.05125 53.155 29.5625 53.75 C23.55421947 58.55662442 1.71286705 56 0 56 C0 37.52 0 19.04 0 0 Z " fill="#2F1AFF" transform="translate(199,106)"/>
<path d="M0 0 C23.46 0 23.46 0 32 8 C34.6891702 12.14580406 34.6734735 17.19534152 34 22 C32.68061622 25.59770113 31.04788375 28.33051871 27.75 30.4375 C27.1725 30.623125 26.595 30.80875 26 31 C26.4280318 37.00801001 28.2945831 40.75554201 31.5625 45.75 C36 52.63182853 36 52.63182853 36 56 C32.7 56 29.4 56 26 56 C25.46375 54.55625 24.9275 53.1125 24.375 51.625 C22.81860669 47.81020381 21.17468858 44.0817874 19.25 40.4375 C18.82203125 39.61121094 18.3940625 38.78492188 17.953125 37.93359375 C15.49961405 35.1114557 15.49961405 35.1114557 8 35 C8 41.93 8 48.86 8 56 C5.36 56 2.72 56 0 56 C0 37.52 0 19.04 0 0 Z " fill="#301CFF" transform="translate(389,106)"/>
<path d="M0 0 C3.45209338 2.48099633 6.27437547 5.02553017 7.72265625 9.11328125 C8.83956565 16.13568865 9.41675036 23.05195089 5.5 29.25 C3.81640625 31.37109375 3.81640625 31.37109375 2.0625 33.25 C1.55589844 33.79785156 1.04929688 34.34570312 0.52734375 34.91015625 C-3.86890215 38.78792598 -8.43636005 38.94020311 -14.13671875 38.65625 C-19.92153164 37.81716975 -22.8220676 34.70785932 -26.3125 30.3125 C-30.64534929 23.45026486 -29.59128652 15.99441373 -28.25 8.3125 C-26.10361609 3.30427087 -23.82842444 0.0656929 -18.75 -2.125 C-11.6310837 -3.29203546 -6.30136426 -4.05746382 0 0 Z " fill="#F8F8FF" transform="translate(176.9375,116.75)"/>
<path d="M0 0 C5.7126457 4.19207383 10.19564035 8.05083982 11.65625 15.33984375 C12.64626484 24.26372752 12.94037895 32.70245548 8.9375 40.875 C8.2775 40.875 7.6175 40.875 6.9375 40.875 C6.669375 41.473125 6.40125 42.07125 6.125 42.6875 C4.93832594 44.87347854 3.84150887 46.28832594 1.9375 47.875 C1.2775 47.875 0.6175 47.875 -0.0625 47.875 C-0.0625 48.535 -0.0625 49.195 -0.0625 49.875 C-7.98273682 53.75429967 -16.92949699 54.33292465 -25.52734375 52.2890625 C-32.34411923 49.34637526 -37.43107299 43.02585673 -40.76953125 36.578125 C-42.16174074 32.59076972 -42.52390963 29.10813818 -42.4375 24.9375 C-42.42807373 24.23383301 -42.41864746 23.53016602 -42.40893555 22.80517578 C-42.16366327 14.37601792 -39.85050482 8.94534652 -34.0625 2.875 C-24.90818369 -4.70621434 -10.12536821 -6.16801405 0 0 Z M-30 10.6875 C-34.0628437 16.96644026 -34.11007819 25.60157097 -33.0625 32.875 C-30.35467299 38.65678275 -26.87766856 43.07991154 -21.0625 45.875 C-15.17197064 46.92310798 -9.63938669 46.87363102 -4.625 43.375 C0.10893441 39.11544733 3.51127554 35.18643621 4.34375 28.71875 C4.51636215 22.44717517 4.40353602 17.18236765 0.9375 11.875 C-4.7412125 6.77693295 -8.77337521 4.55408911 -16.39453125 4.6640625 C-21.86675187 5.09671245 -26.23610409 6.59023045 -30 10.6875 Z " fill="#2D18FF" transform="translate(181.0625,109.125)"/>
<path d="M0 0 C0.99 0 1.98 0 3 0 C3.495 1.155 3.99 2.31 4.5 3.5 C6.85080142 8.80826128 9.46031718 13.97828867 12.09375 19.15039062 C14.23164827 23.37211581 16.14413879 27.64451001 18 32 C18.98357352 34.00812926 19.98308736 36.00854609 21 38 C27 49.92537313 27 49.92537313 27 54 C24.03 54 21.06 54 18 54 C15 47.25 15 47.25 15 45 C1.635 45.495 1.635 45.495 -12 46 C-12.99 48.64 -13.98 51.28 -15 54 C-17.97 54 -20.94 54 -24 54 C-22.88445368 48.42226841 -21.16236381 44.24121561 -18.2890625 39.3515625 C-16.97203232 36.94898017 -15.97447731 34.55899327 -15 32 C-13.72076499 28.65748272 -12.2896494 25.59914897 -10.5 22.5 C-8.25173133 18.60162589 -6.5895158 14.63806365 -4.98046875 10.44140625 C-3.53488524 6.84184572 -1.78488902 3.44228596 0 0 Z " fill="#2E1AFF" transform="translate(360,107)"/>
<path d="M0 0 C2.64 0 5.28 0 8 0 C8 18.15 8 36.3 8 55 C4.41789934 53.20894967 3.31688497 52.5094718 0.9375 49.625 C-2.12490447 46.00280117 -5.28150821 42.48341526 -8.5 39 C-12.28303762 34.89439779 -16.01285737 30.75038045 -19.66015625 26.5234375 C-20.72887904 25.30827165 -21.8557106 24.1442894 -23 23 C-23.33 33.89 -23.66 44.78 -24 56 C-26.97 56 -29.94 56 -33 56 C-33 37.85 -33 19.7 -33 1 C-28.93707614 3.03146193 -26.6227093 5.30644972 -23.6875 8.625 C-23.20039551 9.16624512 -22.71329102 9.70749023 -22.21142578 10.26513672 C-19.03009668 13.80920272 -15.88240962 17.38342966 -12.765625 20.984375 C-9.83252386 24.3327825 -6.82215621 27.61167303 -3.8203125 30.8984375 C-2 33 -2 33 -1 35 C-0.67 23.45 -0.34 11.9 0 0 Z " fill="#301CFF" transform="translate(125,106)"/>
<path d="M0 0 C5.71652961 -0.22485593 9.57383988 0.50285939 14.64453125 3.1484375 C13.76953125 9.0234375 13.76953125 9.0234375 12.64453125 10.1484375 C10.14453125 10.2734375 10.14453125 10.2734375 7.64453125 10.1484375 C7.31453125 9.8184375 6.98453125 9.4884375 6.64453125 9.1484375 C4.81337242 9.04992579 2.97833192 9.01871121 1.14453125 9.0234375 C-0.3559375 9.01957031 -0.3559375 9.01957031 -1.88671875 9.015625 C-4.29946497 8.86973368 -4.29946497 8.86973368 -5.35546875 10.1484375 C-6.54016629 13.46559061 -6.65808906 15.8565443 -5.35546875 19.1484375 C-1.81367721 21.88648084 1.82235898 23.94131361 5.77734375 26.0078125 C9.94393691 28.20162606 14.48301541 30.82540582 16.64453125 35.1484375 C17.16301684 40.35029288 17.26471138 44.78404121 15.08203125 49.5859375 C10.03254099 54.89437598 6.44915182 56.39697498 -0.79296875 56.6484375 C-6.68068334 56.48526758 -10.39792098 55.25905571 -15.35546875 52.1484375 C-14.80823192 48.77381035 -14.30056875 47.0660875 -12.35546875 44.1484375 C-10.37546875 44.8084375 -8.39546875 45.4684375 -6.35546875 46.1484375 C-6.35546875 46.8084375 -6.35546875 47.4684375 -6.35546875 48.1484375 C-4.37560793 48.03496131 -2.39655277 47.907344 -0.41796875 47.7734375 C1.23525391 47.66902344 1.23525391 47.66902344 2.921875 47.5625 C4.26958984 47.35753906 4.26958984 47.35753906 5.64453125 47.1484375 C7.21388719 44.00972562 6.99654228 41.60987928 6.64453125 38.1484375 C3.91976427 34.33376373 0.86659221 32.72436563 -3.29296875 30.8359375 C-8.52895472 28.29229708 -12.09342817 25.63695456 -14.35546875 20.1484375 C-15.27739633 14.98311722 -15.76450407 9.76521738 -13.20703125 5.015625 C-10.87958625 2.46651857 -8.8936143 1.31966563 -5.60546875 0.2734375 C-3.73613955 0.20154022 -1.86700778 0.11765555 0 0 Z " fill="#2F1AFF" transform="translate(254.35546875,105.8515625)"/>
<path d="M0 0 C1.51815699 0.00015911 3.0363194 0.00585313 4.55444336 0.01586914 C5.35208603 0.01728409 6.1497287 0.01869904 6.97154236 0.02015686 C9.52916146 0.02577223 12.08669429 0.03832727 14.64428711 0.05102539 C16.37410356 0.05603841 18.10392137 0.06060166 19.83374023 0.06469727 C24.08312264 0.07574664 28.33244023 0.09302153 32.58178711 0.11352539 C32.58178711 2.75352539 32.58178711 5.39352539 32.58178711 8.11352539 C27.96178711 8.11352539 23.34178711 8.11352539 18.58178711 8.11352539 C18.58178711 23.95352539 18.58178711 39.79352539 18.58178711 56.11352539 C15.61178711 56.11352539 12.64178711 56.11352539 9.58178711 56.11352539 C9.58178711 40.27352539 9.58178711 24.43352539 9.58178711 8.11352539 C4.96178711 8.11352539 0.34178711 8.11352539 -4.41821289 8.11352539 C-4.41821289 0.1467373 -4.41821289 0.1467373 0 0 Z " fill="#3B27FF" transform="translate(428.418212890625,105.886474609375)"/>
<path d="M0 0 C13.125 -0.53571429 13.125 -0.53571429 16.75 1.5625 C19.7351703 4.79643449 20.07428046 6.61745263 20 11 C19.26413753 13.6169757 18.31091382 15.57238181 17 18 C13.93618406 19.53190797 10.73034134 19.10243613 7.375 19.0625 C4.94125 19.041875 2.5075 19.02125 0 19 C0 12.73 0 6.46 0 0 Z " fill="#F1EFFF" transform="translate(207,136)"/>
<path d="M0 0 C12.15473973 -0.75029258 12.15473973 -0.75029258 16.80078125 3.17578125 C18.9483881 6.44266203 18.94093905 9.57809747 18.66796875 13.39453125 C17.94846056 16.20103397 17.38078792 17.33409204 15.1875 19.1875 C10.36485503 21.94613231 5.39229029 21.33285743 0 21 C0 14.07 0 7.14 0 0 Z " fill="#F3F2FF" transform="translate(397,113)"/>
<path d="M0 0 C4.29 0 8.58 0 13 0 C13 0.66 13 1.32 13 2 C14.32 2.66 15.64 3.32 17 4 C17.75857917 11.88922336 17.75857917 11.88922336 15.25 15.5625 C10.15209197 17.81734393 5.53951317 17.24349508 0 17 C0 11.39 0 5.78 0 0 Z " fill="#EEECFF" transform="translate(207,113)"/>
<path d="M0 0 C15.18 0 30.36 0 46 0 C46 1.65 46 3.3 46 5 C30.82 5 15.64 5 0 5 C0 3.35 0 1.7 0 0 Z " fill="#4D3CFF" transform="translate(17,101)"/>
<path d="M0 0 C0.99 0.33 1.98 0.66 3 1 C2.41486924 4.28825741 1.43590344 5.94742319 -0.89575195 8.31567383 C-1.50340897 8.93924271 -2.11106598 9.56281158 -2.73713684 10.20527649 C-3.3975145 10.86585556 -4.05789215 11.52643463 -4.73828125 12.20703125 C-5.415457 12.89182053 -6.09263275 13.5766098 -6.79032898 14.28215027 C-8.22311723 15.725737 -9.65989599 17.16537244 -11.1003418 18.60131836 C-13.30778257 20.80778466 -15.4930356 23.03471359 -17.67773438 25.26367188 C-19.07161437 26.66275699 -20.46675491 28.06058763 -21.86328125 29.45703125 C-22.84473869 30.46308159 -22.84473869 30.46308159 -23.84602356 31.48945618 C-24.7716938 32.40116829 -24.7716938 32.40116829 -25.71606445 33.33129883 C-26.52428398 34.14260002 -26.52428398 34.14260002 -27.34883118 34.97029114 C-29 36 -29 36 -31.20524597 35.66679382 C-31.7975148 35.44675186 -32.38978363 35.2267099 -33 35 C-31.67005617 32.04734888 -30.22220684 29.97649784 -27.92724609 27.70019531 C-27.30675385 27.07985413 -26.6862616 26.45951294 -26.04696655 25.82037354 C-25.37920197 25.16293152 -24.71143738 24.5054895 -24.0234375 23.828125 C-23.33819 23.1457074 -22.6529425 22.46328979 -21.94692993 21.76019287 C-19.76094155 19.58538402 -17.56809571 17.41763928 -15.375 15.25 C-13.89016745 13.7752001 -12.40578694 12.29994494 -10.921875 10.82421875 C-7.2864709 7.21084552 -3.64490176 3.60379147 0 0 Z " fill="#2F1BFF" transform="translate(120,54)"/>
<path d="M0 0 C3.63711204 3.15527241 5.10613249 6.12973268 6.75 10.625 C7.17796875 11.77226562 7.6059375 12.91953125 8.046875 14.1015625 C9 17 9 17 9 19 C3.06 19 -2.88 19 -9 19 C-8.08966924 14.44834621 -7.32231131 12.75142596 -5 9 C-4.46200485 7.77824746 -3.94166395 6.54859739 -3.4375 5.3125 C-2 2 -2 2 0 0 Z " fill="#E4E2FF" transform="translate(361,125)"/>
<path d="M0 0 C0.59416214 0.21814865 1.18832428 0.4362973 1.80049133 0.66105652 C1.80049133 3.66105652 1.80049133 3.66105652 0.48994446 5.04801941 C-0.45461609 5.80200012 -0.45461609 5.80200012 -1.41825867 6.57121277 C-5.21030537 9.74880746 -8.74102579 13.09432732 -12.23075867 16.59465027 C-12.75629333 17.12120209 -13.281828 17.64775391 -13.82328796 18.19026184 C-15.45067604 19.82440295 -17.07515137 21.46140331 -18.69950867 23.09855652 C-19.81906499 24.22313982 -20.93885496 25.34749057 -22.05888367 26.47160339 C-24.77512401 29.19874996 -27.48819158 31.92901559 -30.19950867 34.66105652 C-31.18950867 34.33105652 -32.17950867 34.00105652 -33.19950867 33.66105652 C-32.6156921 30.42783245 -31.69011175 28.76898422 -29.39555359 26.43717957 C-28.80791733 25.83363144 -28.22028107 25.23008331 -27.61483765 24.60824585 C-26.65708183 23.65018791 -26.65708183 23.65018791 -25.67997742 22.67277527 C-25.02499771 22.01018204 -24.37001801 21.34758881 -23.69519043 20.66491699 C-22.30948026 19.2684097 -20.91978057 17.87585142 -19.52641296 16.48698425 C-17.39138944 14.35293529 -15.27858417 12.19845132 -13.16630554 10.04191589 C-11.81799851 8.68840377 -10.46843086 7.33614599 -9.11747742 5.98527527 C-8.48504623 5.33644882 -7.85261505 4.68762238 -7.20101929 4.01913452 C-6.60392654 3.4313472 -6.0068338 2.84355988 -5.39164734 2.23796082 C-4.87059921 1.71485825 -4.34955109 1.19175568 -3.81271362 0.65280151 C-2.19950867 -0.33894348 -2.19950867 -0.33894348 0 0 Z " fill="#402EFF" transform="translate(68.19950866699219,113.33894348144531)"/>
<path d="M0 0 C3.23322407 0.58381657 4.8920723 1.50939692 7.22387695 3.80395508 C8.12919914 4.68540947 8.12919914 4.68540947 9.05281067 5.58467102 C9.69151596 6.2231749 10.33022125 6.86167877 10.98828125 7.51953125 C11.65087448 8.17451096 12.31346771 8.82949066 12.99613953 9.50431824 C14.39264682 10.8900284 15.7852051 12.2797281 17.17407227 13.6730957 C19.30812123 15.80811923 21.4626052 17.9209245 23.61914062 20.03320312 C24.97265275 21.38151016 26.32491053 22.7310778 27.67578125 24.08203125 C28.64902092 25.03067802 28.64902092 25.03067802 29.641922 25.99848938 C30.22970932 26.59558212 30.81749664 27.19267487 31.4230957 27.80786133 C31.94619827 28.32890945 32.46930084 28.84995758 33.008255 29.38679504 C34 31 34 31 33.66105652 33.19950867 C33.44290787 33.79367081 33.22475922 34.38783295 33 35 C30.09456128 33.68623083 28.03338941 32.27943508 25.79199219 30.01904297 C25.19167175 29.41857147 24.59135132 28.81809998 23.97283936 28.19943237 C23.33727112 27.55354156 22.70170288 26.90765076 22.046875 26.2421875 C21.38665344 25.57913605 20.72643188 24.91608459 20.04620361 24.23294067 C17.94272176 22.11828168 15.84630858 19.99676788 13.75 17.875 C12.32337739 16.43834443 10.89629928 15.00214102 9.46875 13.56640625 C5.97386339 10.04949196 2.48529938 6.52641453 -1 3 C-0.67 2.01 -0.34 1.02 0 0 Z " fill="#3E2BFF" transform="translate(32,57)"/>
<path d="M0 0 C1.32 0 2.64 0 4 0 C4 15.84 4 31.68 4 48 C2.68 48 1.36 48 0 48 C0 32.16 0 16.32 0 0 Z " fill="#3B27FF" transform="translate(75,36)"/>
<path d="M0 0 C1.485 0.495 1.485 0.495 3 1 C-8 12 -19 23 -30 34 C-30.495 32.515 -30.495 32.515 -31 31 C-20.77 20.77 -10.54 10.54 0 0 Z " fill="#503FFF" transform="translate(120,54)"/>
<path d="M0 0 C-1.58431453 3.90851199 -4.26635095 6.52367356 -7.2265625 9.421875 C-7.73424164 9.92672424 -8.24192078 10.43157349 -8.76498413 10.95172119 C-10.38033842 12.55592096 -12.00252209 14.15300856 -13.625 15.75 C-14.72441698 16.83938107 -15.82338059 17.9292199 -16.921875 19.01953125 C-19.6093602 21.68501885 -22.30299021 24.34415143 -25 27 C-25.66 26.67 -26.32 26.34 -27 26 C-21.81693033 19.90350759 -16.34216406 14.15927259 -10.6875 8.5 C-9.87732422 7.67757812 -9.06714844 6.85515625 -8.23242188 6.0078125 C-7.45833984 5.23179688 -6.68425781 4.45578125 -5.88671875 3.65625 C-4.83810669 2.60147461 -4.83810669 2.60147461 -3.76831055 1.52539062 C-2 0 -2 0 0 0 Z " fill="#3420FF" transform="translate(63,121)"/>
<path d="M0 0 C-1.28519565 2.86697492 -2.57129254 4.97607712 -5 7 C-5.66 7 -6.32 7 -7 7 C-7 10.96 -7 14.92 -7 19 C-7.33 19 -7.66 19 -8 19 C-8.91426091 7.58866942 -8.91426091 7.58866942 -6.734375 3.80078125 C-2.94279661 0 -2.94279661 0 0 0 Z " fill="#5443FF" transform="translate(248,107)"/>
<path d="M0 0 C0.99 0.33 1.98 0.66 3 1 C3 1.66 3 2.32 3 3 C5.31 3.33 7.62 3.66 10 4 C10 4.33 10 4.66 10 5 C4.39 5 -1.22 5 -7 5 C-6.67 4.01 -6.34 3.02 -6 2 C-6 2.66 -6 3.32 -6 4 C-4.02 4 -2.04 4 0 4 C0 2.68 0 1.36 0 0 Z " fill="#7669FF" transform="translate(334,157)"/>
<path d="M0 0 C0.58265625 0.23589844 1.1653125 0.47179687 1.765625 0.71484375 C1.765625 1.70484375 1.765625 2.69484375 1.765625 3.71484375 C1.20875 3.44671875 0.651875 3.17859375 0.078125 2.90234375 C-0.685 2.84046875 -1.448125 2.77859375 -2.234375 2.71484375 C-5.00559775 5.06910874 -5.00559775 5.06910874 -7.234375 7.71484375 C-7.894375 7.38484375 -8.554375 7.05484375 -9.234375 6.71484375 C-8.16721428 5.51278911 -7.07999163 4.32852042 -5.984375 3.15234375 C-5.38109375 2.49105469 -4.7778125 1.82976562 -4.15625 1.1484375 C-2.234375 -0.28515625 -2.234375 -0.28515625 0 0 Z " fill="#6050FF" transform="translate(68.234375,113.28515625)"/>
<path d="M0 0 C0.66 0.33 1.32 0.66 2 1 C-1.3 4.3 -4.6 7.6 -8 11 C-8 7.0234755 -6.61988497 5.9109833 -4 3 C-1.75 1.1875 -1.75 1.1875 0 0 Z " fill="#5848FF" transform="translate(151,109)"/>
<path d="M0 0 C0.99 0 1.98 0 3 0 C3.33 2.64 3.66 5.28 4 8 C3.34 7.34 2.68 6.68 2 6 C2 5.01 2 4.02 2 3 C1.34 3 0.68 3 0 3 C0 3.99 0 4.98 0 6 C-0.66 6 -1.32 6 -2 6 C-1.34 4.02 -0.68 2.04 0 0 Z " fill="#7467FF" transform="translate(322,107)"/>
<path d="M0 0 C0.99 0 1.98 0 3 0 C3.66 1.98 4.32 3.96 5 6 C4.34 6 3.68 6 3 6 C2.34 5.34 1.68 4.68 1 4 C0.01 4.495 0.01 4.495 -1 5 C-0.67 3.35 -0.34 1.7 0 0 Z " fill="#6556FF" transform="translate(360,107)"/>
<path d="M0 0 C0.66 0 1.32 0 2 0 C1.505 0.7425 1.505 0.7425 1 1.5 C-0.43636358 5.09090894 -0.12851462 8.14456127 0 12 C-0.66 11.67 -1.32 11.34 -2 11 C-2.05399736 9.54207116 -2.09279177 8.08357288 -2.125 6.625 C-2.15980469 5.40683594 -2.15980469 5.40683594 -2.1953125 4.1640625 C-2 2 -2 2 0 0 Z " fill="#B2ABFF" transform="translate(250,114)"/>
</svg>
